<svg xmlns="http://www.w3.org/2000/svg" xmlns:xlink="http://www.w3.org/1999/xlink" width="500" zoomAndPan="magnify" viewBox="0 0 375 374.999991" height="500" preserveAspectRatio="xMidYMid meet" version="1.0"><defs><clipPath id="3206f94d0a"><path d="M 122 36 L 348 36 L 348 339 L 122 339 Z M 122 36 " clip-rule="nonzero"/></clipPath><clipPath id="6789ee158d"><path d="M 270.023438 15.09375 L 368.28125 72.933594 L 199.285156 360.03125 L 101.027344 302.191406 Z M 270.023438 15.09375 " clip-rule="nonzero"/></clipPath><clipPath id="338093785b"><path d="M 319.152344 44.015625 C 332.179688 51.683594 341.628906 64.214844 345.421875 78.851562 C 349.210938 93.488281 347.03125 109.03125 339.359375 122.0625 L 228.277344 310.777344 C 220.605469 323.808594 208.074219 333.257812 193.4375 337.046875 C 178.800781 340.835938 163.257812 338.65625 150.226562 330.988281 C 137.199219 323.316406 127.75 310.785156 123.957031 296.148438 C 120.167969 281.511719 122.347656 265.96875 130.019531 252.9375 L 241.101562 64.222656 C 248.773438 51.195312 261.304688 41.746094 275.941406 37.953125 C 290.578125 34.164062 306.121094 36.34375 319.152344 44.015625 Z M 319.152344 44.015625 " clip-rule="nonzero"/></clipPath><clipPath id="737a8016ec"><path d="M 0 0 L 226 0 L 226 303 L 0 303 Z M 0 0 " clip-rule="nonzero"/></clipPath><clipPath id="21f4c76c19"><path d="M 148.023438 -20.90625 L 246.28125 36.933594 L 77.285156 324.03125 L -20.972656 266.191406 Z M 148.023438 -20.90625 " clip-rule="nonzero"/></clipPath><clipPath id="1253d84e04"><path d="M 197.152344 8.015625 C 210.179688 15.683594 219.628906 28.214844 223.421875 42.851562 C 227.210938 57.488281 225.03125 73.03125 217.359375 86.0625 L 106.277344 274.777344 C 98.605469 287.808594 86.074219 297.257812 71.4375 301.046875 C 56.800781 304.835938 41.257812 302.65625 28.226562 294.988281 C 15.199219 287.316406 5.75 274.785156 1.957031 260.148438 C -1.832031 245.511719 0.347656 229.96875 8.019531 216.9375 L 119.101562 28.222656 C 126.773438 15.195312 139.304688 5.746094 153.941406 1.953125 C 168.578125 -1.835938 184.121094 0.34375 197.152344 8.015625 Z M 197.152344 8.015625 " clip-rule="nonzero"/></clipPath><clipPath id="49922ccf99"><rect x="0" width="226" y="0" height="303"/></clipPath><clipPath id="d31ecd53f2"><path d="M 6.714844 35.855469 L 124.183594 35.855469 L 124.183594 153.320312 L 6.714844 153.320312 Z M 6.714844 35.855469 " clip-rule="nonzero"/></clipPath><clipPath id="507cc54513"><path d="M 65.449219 35.855469 C 33.011719 35.855469 6.714844 62.152344 6.714844 94.589844 C 6.714844 127.023438 33.011719 153.320312 65.449219 153.320312 C 97.886719 153.320312 124.183594 127.023438 124.183594 94.589844 C 124.183594 62.152344 97.886719 35.855469 65.449219 35.855469 Z M 65.449219 35.855469 " clip-rule="nonzero"/></clipPath><clipPath id="1ce0288798"><path d="M 0.714844 0.855469 L 118.183594 0.855469 L 118.183594 118.320312 L 0.714844 118.320312 Z M 0.714844 0.855469 " clip-rule="nonzero"/></clipPath><clipPath id="d6d98fa109"><path d="M 59.449219 0.855469 C 27.011719 0.855469 0.714844 27.152344 0.714844 59.589844 C 0.714844 92.023438 27.011719 118.320312 59.449219 118.320312 C 91.886719 118.320312 118.183594 92.023438 118.183594 59.589844 C 118.183594 27.152344 91.886719 0.855469 59.449219 0.855469 Z M 59.449219 0.855469 " clip-rule="nonzero"/></clipPath><clipPath id="eb995d0bc5"><rect x="0" width="119" y="0" height="119"/></clipPath></defs><g clip-path="url(#3206f94d0a)"><g clip-path="url(#6789ee158d)"><g clip-path="url(#338093785b)"><g transform="matrix(1, 0, 0, 1, 122, 36)"><g clip-path="url(#49922ccf99)"><g clip-path="url(#737a8016ec)"><g clip-path="url(#21f4c76c19)"><g clip-path="url(#1253d84e04)"><path fill="#4fc3f7" d="M 148.023438 -20.90625 L 246.28125 36.933594 L 77.285156 324.03125 L -20.972656 266.191406 Z M 148.023438 -20.90625 " fill-opacity="1" fill-rule="nonzero"/></g></g></g></g></g></g></g></g><g clip-path="url(#d31ecd53f2)"><g clip-path="url(#507cc54513)"><g transform="matrix(1, 0, 0, 1, 6, 35)"><g clip-path="url(#eb995d0bc5)"><g clip-path="url(#1ce0288798)"><g clip-path="url(#d6d98fa109)"><path fill="#b39ddb" d="M 0.714844 0.855469 L 118.183594 0.855469 L 118.183594 118.320312 L 0.714844 118.320312 Z M 0.714844 0.855469 " fill-opacity="1" fill-rule="nonzero"/></g></g></g></g></g></g></svg>